<mxfile host="app.diagrams.net" agent="Mozilla/5.0 (Macintosh; Intel Mac OS X 10_15_7) AppleWebKit/605.1.15 (KHTML, like Gecko) Version/17.6 Safari/605.1.15" version="24.7.17">
  <diagram name="Страница — 1" id="pYBPi7qw7pH0Tp7uqq_G">
    <mxGraphModel dx="1363" dy="924" grid="0" gridSize="10" guides="1" tooltips="1" connect="1" arrows="1" fold="1" page="1" pageScale="1" pageWidth="1654" pageHeight="2336" background="#FFFFFF" math="0" shadow="0">
      <root>
        <mxCell id="0" />
        <mxCell id="1" parent="0" />
        <mxCell id="13ZfMqJyJ5SKK8B_ByMd-3" value="Task" style="swimlane;fontStyle=0;childLayout=stackLayout;horizontal=1;startSize=30;horizontalStack=0;resizeParent=1;resizeParentMax=0;resizeLast=0;collapsible=1;marginBottom=0;whiteSpace=wrap;html=1;labelBackgroundColor=none;rounded=0;" vertex="1" parent="1">
          <mxGeometry x="1100" y="350" width="280" height="430" as="geometry" />
        </mxCell>
        <mxCell id="13ZfMqJyJ5SKK8B_ByMd-4" value="name: String" style="text;strokeColor=none;fillColor=none;align=left;verticalAlign=middle;spacingLeft=4;spacingRight=4;overflow=hidden;points=[[0,0.5],[1,0.5]];portConstraint=eastwest;rotatable=0;whiteSpace=wrap;html=1;labelBackgroundColor=none;rounded=0;" vertex="1" parent="13ZfMqJyJ5SKK8B_ByMd-3">
          <mxGeometry y="30" width="280" height="30" as="geometry" />
        </mxCell>
        <mxCell id="13ZfMqJyJ5SKK8B_ByMd-5" value="description: String" style="text;strokeColor=none;fillColor=none;align=left;verticalAlign=middle;spacingLeft=4;spacingRight=4;overflow=hidden;points=[[0,0.5],[1,0.5]];portConstraint=eastwest;rotatable=0;whiteSpace=wrap;html=1;labelBackgroundColor=none;rounded=0;" vertex="1" parent="13ZfMqJyJ5SKK8B_ByMd-3">
          <mxGeometry y="60" width="280" height="30" as="geometry" />
        </mxCell>
        <mxCell id="13ZfMqJyJ5SKK8B_ByMd-6" value="deadline: date" style="text;strokeColor=none;fillColor=none;align=left;verticalAlign=middle;spacingLeft=4;spacingRight=4;overflow=hidden;points=[[0,0.5],[1,0.5]];portConstraint=eastwest;rotatable=0;whiteSpace=wrap;html=1;labelBackgroundColor=none;rounded=0;" vertex="1" parent="13ZfMqJyJ5SKK8B_ByMd-3">
          <mxGeometry y="90" width="280" height="30" as="geometry" />
        </mxCell>
        <mxCell id="13ZfMqJyJ5SKK8B_ByMd-7" value="is_completed: boolean" style="text;strokeColor=none;fillColor=none;align=left;verticalAlign=middle;spacingLeft=4;spacingRight=4;overflow=hidden;points=[[0,0.5],[1,0.5]];portConstraint=eastwest;rotatable=0;whiteSpace=wrap;html=1;labelBackgroundColor=none;rounded=0;" vertex="1" parent="13ZfMqJyJ5SKK8B_ByMd-3">
          <mxGeometry y="120" width="280" height="30" as="geometry" />
        </mxCell>
        <mxCell id="13ZfMqJyJ5SKK8B_ByMd-8" value="priority: StrChoice[Low, Medium, High, Very High]" style="text;strokeColor=none;fillColor=none;align=left;verticalAlign=middle;spacingLeft=4;spacingRight=4;overflow=hidden;points=[[0,0.5],[1,0.5]];portConstraint=eastwest;rotatable=0;whiteSpace=wrap;html=1;labelBackgroundColor=none;rounded=0;" vertex="1" parent="13ZfMqJyJ5SKK8B_ByMd-3">
          <mxGeometry y="150" width="280" height="70" as="geometry" />
        </mxCell>
        <mxCell id="13ZfMqJyJ5SKK8B_ByMd-18" value="task_type:TaskType" style="text;strokeColor=none;fillColor=none;align=left;verticalAlign=middle;spacingLeft=4;spacingRight=4;overflow=hidden;points=[[0,0.5],[1,0.5]];portConstraint=eastwest;rotatable=0;whiteSpace=wrap;html=1;labelBackgroundColor=none;rounded=0;" vertex="1" parent="13ZfMqJyJ5SKK8B_ByMd-3">
          <mxGeometry y="220" width="280" height="70" as="geometry" />
        </mxCell>
        <mxCell id="13ZfMqJyJ5SKK8B_ByMd-10" value="assignees: List[Worker]" style="text;strokeColor=none;fillColor=none;align=left;verticalAlign=middle;spacingLeft=4;spacingRight=4;overflow=hidden;points=[[0,0.5],[1,0.5]];portConstraint=eastwest;rotatable=0;whiteSpace=wrap;html=1;labelBackgroundColor=none;rounded=0;" vertex="1" parent="13ZfMqJyJ5SKK8B_ByMd-3">
          <mxGeometry y="290" width="280" height="70" as="geometry" />
        </mxCell>
        <mxCell id="13ZfMqJyJ5SKK8B_ByMd-89" value="" style="endArrow=none;html=1;rounded=0;entryX=0;entryY=0.5;entryDx=0;entryDy=0;labelBackgroundColor=none;fontColor=default;" edge="1" parent="13ZfMqJyJ5SKK8B_ByMd-3" target="13ZfMqJyJ5SKK8B_ByMd-11">
          <mxGeometry width="50" height="50" relative="1" as="geometry">
            <mxPoint x="-40" y="390" as="sourcePoint" />
            <mxPoint x="10" y="340" as="targetPoint" />
          </mxGeometry>
        </mxCell>
        <mxCell id="13ZfMqJyJ5SKK8B_ByMd-11" value="project: Project" style="text;strokeColor=none;fillColor=none;align=left;verticalAlign=middle;spacingLeft=4;spacingRight=4;overflow=hidden;points=[[0,0.5],[1,0.5]];portConstraint=eastwest;rotatable=0;whiteSpace=wrap;html=1;labelBackgroundColor=none;rounded=0;" vertex="1" parent="13ZfMqJyJ5SKK8B_ByMd-3">
          <mxGeometry y="360" width="280" height="70" as="geometry" />
        </mxCell>
        <mxCell id="13ZfMqJyJ5SKK8B_ByMd-12" value="TaskType" style="swimlane;fontStyle=0;childLayout=stackLayout;horizontal=1;startSize=30;horizontalStack=0;resizeParent=1;resizeParentMax=0;resizeLast=0;collapsible=1;marginBottom=0;whiteSpace=wrap;html=1;labelBackgroundColor=none;rounded=0;" vertex="1" parent="1">
          <mxGeometry x="800" y="290" width="140" height="60" as="geometry" />
        </mxCell>
        <mxCell id="13ZfMqJyJ5SKK8B_ByMd-13" value="name: String" style="text;strokeColor=none;fillColor=none;align=left;verticalAlign=middle;spacingLeft=4;spacingRight=4;overflow=hidden;points=[[0,0.5],[1,0.5]];portConstraint=eastwest;rotatable=0;whiteSpace=wrap;html=1;labelBackgroundColor=none;rounded=0;" vertex="1" parent="13ZfMqJyJ5SKK8B_ByMd-12">
          <mxGeometry y="30" width="140" height="30" as="geometry" />
        </mxCell>
        <mxCell id="13ZfMqJyJ5SKK8B_ByMd-17" value="" style="endArrow=none;html=1;rounded=0;labelBackgroundColor=none;fontColor=default;" edge="1" parent="1">
          <mxGeometry width="50" height="50" relative="1" as="geometry">
            <mxPoint x="1050" y="340" as="sourcePoint" />
            <mxPoint x="1100" y="610" as="targetPoint" />
            <Array as="points">
              <mxPoint x="1050" y="390" />
              <mxPoint x="1050" y="610" />
            </Array>
          </mxGeometry>
        </mxCell>
        <mxCell id="13ZfMqJyJ5SKK8B_ByMd-19" value="" style="endArrow=none;html=1;rounded=0;labelBackgroundColor=none;fontColor=default;" edge="1" parent="1">
          <mxGeometry width="50" height="50" relative="1" as="geometry">
            <mxPoint x="970" y="339.5" as="sourcePoint" />
            <mxPoint x="1050" y="339.5" as="targetPoint" />
            <Array as="points" />
          </mxGeometry>
        </mxCell>
        <mxCell id="13ZfMqJyJ5SKK8B_ByMd-21" value="" style="shape=rhombus;perimeter=rhombusPerimeter;whiteSpace=wrap;html=1;align=center;labelBackgroundColor=none;rounded=0;" vertex="1" parent="1">
          <mxGeometry x="940" y="330" width="30" height="20" as="geometry" />
        </mxCell>
        <mxCell id="13ZfMqJyJ5SKK8B_ByMd-23" value="1" style="text;html=1;align=center;verticalAlign=middle;whiteSpace=wrap;rounded=0;labelBackgroundColor=none;" vertex="1" parent="1">
          <mxGeometry x="940" y="290" width="60" height="30" as="geometry" />
        </mxCell>
        <mxCell id="13ZfMqJyJ5SKK8B_ByMd-24" value="n" style="text;html=1;align=center;verticalAlign=middle;whiteSpace=wrap;rounded=0;labelBackgroundColor=none;" vertex="1" parent="1">
          <mxGeometry x="1030" y="570" width="60" height="30" as="geometry" />
        </mxCell>
        <mxCell id="13ZfMqJyJ5SKK8B_ByMd-25" value="Worker(AbstractUser)" style="swimlane;fontStyle=0;childLayout=stackLayout;horizontal=1;startSize=30;horizontalStack=0;resizeParent=1;resizeParentMax=0;resizeLast=0;collapsible=1;marginBottom=0;whiteSpace=wrap;html=1;labelBackgroundColor=none;rounded=0;" vertex="1" parent="1">
          <mxGeometry x="810" y="540" width="140" height="240" as="geometry" />
        </mxCell>
        <mxCell id="13ZfMqJyJ5SKK8B_ByMd-26" value="position: Position" style="text;strokeColor=none;fillColor=none;align=left;verticalAlign=middle;spacingLeft=4;spacingRight=4;overflow=hidden;points=[[0,0.5],[1,0.5]];portConstraint=eastwest;rotatable=0;whiteSpace=wrap;html=1;labelBackgroundColor=none;rounded=0;" vertex="1" parent="13ZfMqJyJ5SKK8B_ByMd-25">
          <mxGeometry y="30" width="140" height="30" as="geometry" />
        </mxCell>
        <mxCell id="13ZfMqJyJ5SKK8B_ByMd-27" value="username: String" style="text;strokeColor=none;fillColor=none;align=left;verticalAlign=middle;spacingLeft=4;spacingRight=4;overflow=hidden;points=[[0,0.5],[1,0.5]];portConstraint=eastwest;rotatable=0;whiteSpace=wrap;html=1;labelBackgroundColor=none;rounded=0;" vertex="1" parent="13ZfMqJyJ5SKK8B_ByMd-25">
          <mxGeometry y="60" width="140" height="30" as="geometry" />
        </mxCell>
        <mxCell id="13ZfMqJyJ5SKK8B_ByMd-28" value="email: String" style="text;strokeColor=none;fillColor=none;align=left;verticalAlign=middle;spacingLeft=4;spacingRight=4;overflow=hidden;points=[[0,0.5],[1,0.5]];portConstraint=eastwest;rotatable=0;whiteSpace=wrap;html=1;labelBackgroundColor=none;rounded=0;" vertex="1" parent="13ZfMqJyJ5SKK8B_ByMd-25">
          <mxGeometry y="90" width="140" height="30" as="geometry" />
        </mxCell>
        <mxCell id="13ZfMqJyJ5SKK8B_ByMd-29" value="password:String" style="text;strokeColor=none;fillColor=none;align=left;verticalAlign=middle;spacingLeft=4;spacingRight=4;overflow=hidden;points=[[0,0.5],[1,0.5]];portConstraint=eastwest;rotatable=0;whiteSpace=wrap;html=1;labelBackgroundColor=none;rounded=0;" vertex="1" parent="13ZfMqJyJ5SKK8B_ByMd-25">
          <mxGeometry y="120" width="140" height="30" as="geometry" />
        </mxCell>
        <mxCell id="13ZfMqJyJ5SKK8B_ByMd-30" value="first_name:String" style="text;strokeColor=none;fillColor=none;align=left;verticalAlign=middle;spacingLeft=4;spacingRight=4;overflow=hidden;points=[[0,0.5],[1,0.5]];portConstraint=eastwest;rotatable=0;whiteSpace=wrap;html=1;labelBackgroundColor=none;rounded=0;" vertex="1" parent="13ZfMqJyJ5SKK8B_ByMd-25">
          <mxGeometry y="150" width="140" height="30" as="geometry" />
        </mxCell>
        <mxCell id="13ZfMqJyJ5SKK8B_ByMd-31" value="last_name: String" style="text;strokeColor=none;fillColor=none;align=left;verticalAlign=middle;spacingLeft=4;spacingRight=4;overflow=hidden;points=[[0,0.5],[1,0.5]];portConstraint=eastwest;rotatable=0;whiteSpace=wrap;html=1;labelBackgroundColor=none;rounded=0;" vertex="1" parent="13ZfMqJyJ5SKK8B_ByMd-25">
          <mxGeometry y="180" width="140" height="30" as="geometry" />
        </mxCell>
        <mxCell id="13ZfMqJyJ5SKK8B_ByMd-32" value="team: Team" style="text;strokeColor=none;fillColor=none;align=left;verticalAlign=middle;spacingLeft=4;spacingRight=4;overflow=hidden;points=[[0,0.5],[1,0.5]];portConstraint=eastwest;rotatable=0;whiteSpace=wrap;html=1;labelBackgroundColor=none;rounded=0;" vertex="1" parent="13ZfMqJyJ5SKK8B_ByMd-25">
          <mxGeometry y="210" width="140" height="30" as="geometry" />
        </mxCell>
        <mxCell id="13ZfMqJyJ5SKK8B_ByMd-37" value="" style="endArrow=classic;html=1;rounded=0;labelBackgroundColor=none;fontColor=default;" edge="1" parent="1">
          <mxGeometry width="50" height="50" relative="1" as="geometry">
            <mxPoint x="1010" y="680" as="sourcePoint" />
            <mxPoint x="1100" y="680" as="targetPoint" />
          </mxGeometry>
        </mxCell>
        <mxCell id="13ZfMqJyJ5SKK8B_ByMd-38" value="" style="endArrow=none;html=1;rounded=0;labelBackgroundColor=none;fontColor=default;" edge="1" parent="1">
          <mxGeometry width="50" height="50" relative="1" as="geometry">
            <mxPoint x="1010" y="680" as="sourcePoint" />
            <mxPoint x="1010" y="570" as="targetPoint" />
          </mxGeometry>
        </mxCell>
        <mxCell id="13ZfMqJyJ5SKK8B_ByMd-39" value="" style="endArrow=classic;html=1;rounded=0;labelBackgroundColor=none;fontColor=default;" edge="1" parent="1">
          <mxGeometry width="50" height="50" relative="1" as="geometry">
            <mxPoint x="1010" y="570" as="sourcePoint" />
            <mxPoint x="953" y="570" as="targetPoint" />
          </mxGeometry>
        </mxCell>
        <mxCell id="13ZfMqJyJ5SKK8B_ByMd-40" value="0..n&lt;span style=&quot;caret-color: rgba(0, 0, 0, 0); color: rgba(0, 0, 0, 0); font-family: monospace; font-size: 0px; text-align: start; white-space: nowrap;&quot;&gt;%3CmxGraphModel%3E%3Croot%3E%3CmxCell%20id%3D%220%22%2F%3E%3CmxCell%20id%3D%221%22%20parent%3D%220%22%2F%3E%3CmxCell%20id%3D%222%22%20value%3D%221%22%20style%3D%22text%3Bhtml%3D1%3Balign%3Dcenter%3BverticalAlign%3Dmiddle%3BwhiteSpace%3Dwrap%3Brounded%3D0%3B%22%20vertex%3D%221%22%20parent%3D%221%22%3E%3CmxGeometry%20x%3D%22940%22%20y%3D%22290%22%20width%3D%2260%22%20height%3D%2230%22%20as%3D%22geometry%22%2F%3E%3C%2FmxCell%3E%3C%2Froot%3E%3C%2FmxGraphModel%3E&lt;/span&gt;" style="text;html=1;align=center;verticalAlign=middle;whiteSpace=wrap;rounded=0;labelBackgroundColor=none;" vertex="1" parent="1">
          <mxGeometry x="950" y="530" width="60" height="30" as="geometry" />
        </mxCell>
        <mxCell id="13ZfMqJyJ5SKK8B_ByMd-41" value="0..n&lt;span style=&quot;caret-color: rgba(0, 0, 0, 0); color: rgba(0, 0, 0, 0); font-family: monospace; font-size: 0px; text-align: start; white-space: nowrap;&quot;&gt;%3CmxGraphModel%3E%3Croot%3E%3CmxCell%20id%3D%220%22%2F%3E%3CmxCell%20id%3D%221%22%20parent%3D%220%22%2F%3E%3CmxCell%20id%3D%222%22%20value%3D%221%22%20style%3D%22text%3Bhtml%3D1%3Balign%3Dcenter%3BverticalAlign%3Dmiddle%3BwhiteSpace%3Dwrap%3Brounded%3D0%3B%22%20vertex%3D%221%22%20parent%3D%221%22%3E%3CmxGeometry%20x%3D%22940%22%20y%3D%22290%22%20width%3D%2260%22%20height%3D%2230%22%20as%3D%22geometry%22%2F%3E%3C%2FmxCell%3E%3C%2Froot%3E%3C%2FmxGraphModel%3E&lt;/span&gt;" style="text;html=1;align=center;verticalAlign=middle;whiteSpace=wrap;rounded=0;labelBackgroundColor=none;" vertex="1" parent="1">
          <mxGeometry x="1040" y="645" width="60" height="30" as="geometry" />
        </mxCell>
        <mxCell id="13ZfMqJyJ5SKK8B_ByMd-43" value="Position" style="swimlane;fontStyle=0;childLayout=stackLayout;horizontal=1;startSize=30;horizontalStack=0;resizeParent=1;resizeParentMax=0;resizeLast=0;collapsible=1;marginBottom=0;whiteSpace=wrap;html=1;labelBackgroundColor=none;rounded=0;" vertex="1" parent="1">
          <mxGeometry x="560" y="540" width="140" height="60" as="geometry" />
        </mxCell>
        <mxCell id="13ZfMqJyJ5SKK8B_ByMd-44" value="name: String" style="text;strokeColor=none;fillColor=none;align=left;verticalAlign=middle;spacingLeft=4;spacingRight=4;overflow=hidden;points=[[0,0.5],[1,0.5]];portConstraint=eastwest;rotatable=0;whiteSpace=wrap;html=1;labelBackgroundColor=none;rounded=0;" vertex="1" parent="13ZfMqJyJ5SKK8B_ByMd-43">
          <mxGeometry y="30" width="140" height="30" as="geometry" />
        </mxCell>
        <mxCell id="13ZfMqJyJ5SKK8B_ByMd-48" value="" style="endArrow=none;html=1;rounded=0;labelBackgroundColor=none;fontColor=default;" edge="1" parent="1">
          <mxGeometry width="50" height="50" relative="1" as="geometry">
            <mxPoint x="730" y="590" as="sourcePoint" />
            <mxPoint x="810" y="590" as="targetPoint" />
          </mxGeometry>
        </mxCell>
        <mxCell id="13ZfMqJyJ5SKK8B_ByMd-49" value="" style="shape=rhombus;perimeter=rhombusPerimeter;whiteSpace=wrap;html=1;align=center;labelBackgroundColor=none;rounded=0;" vertex="1" parent="1">
          <mxGeometry x="700" y="580" width="30" height="20" as="geometry" />
        </mxCell>
        <mxCell id="13ZfMqJyJ5SKK8B_ByMd-50" value="1" style="text;html=1;align=center;verticalAlign=middle;whiteSpace=wrap;rounded=0;labelBackgroundColor=none;" vertex="1" parent="1">
          <mxGeometry x="685" y="555" width="60" height="30" as="geometry" />
        </mxCell>
        <mxCell id="13ZfMqJyJ5SKK8B_ByMd-51" value="n" style="text;html=1;align=center;verticalAlign=middle;whiteSpace=wrap;rounded=0;labelBackgroundColor=none;" vertex="1" parent="1">
          <mxGeometry x="767" y="560" width="60" height="30" as="geometry" />
        </mxCell>
        <mxCell id="13ZfMqJyJ5SKK8B_ByMd-65" value="Project" style="swimlane;fontStyle=0;childLayout=stackLayout;horizontal=1;startSize=30;horizontalStack=0;resizeParent=1;resizeParentMax=0;resizeLast=0;collapsible=1;marginBottom=0;whiteSpace=wrap;html=1;labelBackgroundColor=none;rounded=0;" vertex="1" parent="1">
          <mxGeometry x="757" y="840" width="180" height="210" as="geometry" />
        </mxCell>
        <mxCell id="13ZfMqJyJ5SKK8B_ByMd-66" value="deadline: data" style="text;strokeColor=none;fillColor=none;align=left;verticalAlign=middle;spacingLeft=4;spacingRight=4;overflow=hidden;points=[[0,0.5],[1,0.5]];portConstraint=eastwest;rotatable=0;whiteSpace=wrap;html=1;labelBackgroundColor=none;rounded=0;" vertex="1" parent="13ZfMqJyJ5SKK8B_ByMd-65">
          <mxGeometry y="30" width="180" height="30" as="geometry" />
        </mxCell>
        <mxCell id="13ZfMqJyJ5SKK8B_ByMd-67" value="description: String" style="text;strokeColor=none;fillColor=none;align=left;verticalAlign=middle;spacingLeft=4;spacingRight=4;overflow=hidden;points=[[0,0.5],[1,0.5]];portConstraint=eastwest;rotatable=0;whiteSpace=wrap;html=1;labelBackgroundColor=none;rounded=0;" vertex="1" parent="13ZfMqJyJ5SKK8B_ByMd-65">
          <mxGeometry y="60" width="180" height="30" as="geometry" />
        </mxCell>
        <mxCell id="13ZfMqJyJ5SKK8B_ByMd-68" value="name: String" style="text;strokeColor=none;fillColor=none;align=left;verticalAlign=middle;spacingLeft=4;spacingRight=4;overflow=hidden;points=[[0,0.5],[1,0.5]];portConstraint=eastwest;rotatable=0;whiteSpace=wrap;html=1;labelBackgroundColor=none;rounded=0;" vertex="1" parent="13ZfMqJyJ5SKK8B_ByMd-65">
          <mxGeometry y="90" width="180" height="30" as="geometry" />
        </mxCell>
        <mxCell id="13ZfMqJyJ5SKK8B_ByMd-70" value="participants: List[Worker]" style="text;strokeColor=none;fillColor=none;align=left;verticalAlign=middle;spacingLeft=4;spacingRight=4;overflow=hidden;points=[[0,0.5],[1,0.5]];portConstraint=eastwest;rotatable=0;whiteSpace=wrap;html=1;labelBackgroundColor=none;rounded=0;" vertex="1" parent="13ZfMqJyJ5SKK8B_ByMd-65">
          <mxGeometry y="120" width="180" height="30" as="geometry" />
        </mxCell>
        <mxCell id="13ZfMqJyJ5SKK8B_ByMd-71" value="team: Team" style="text;strokeColor=none;fillColor=none;align=left;verticalAlign=middle;spacingLeft=4;spacingRight=4;overflow=hidden;points=[[0,0.5],[1,0.5]];portConstraint=eastwest;rotatable=0;whiteSpace=wrap;html=1;labelBackgroundColor=none;rounded=0;" vertex="1" parent="13ZfMqJyJ5SKK8B_ByMd-65">
          <mxGeometry y="150" width="180" height="30" as="geometry" />
        </mxCell>
        <mxCell id="13ZfMqJyJ5SKK8B_ByMd-72" value="is_completed: boolean" style="text;strokeColor=none;fillColor=none;align=left;verticalAlign=middle;spacingLeft=4;spacingRight=4;overflow=hidden;points=[[0,0.5],[1,0.5]];portConstraint=eastwest;rotatable=0;whiteSpace=wrap;html=1;labelBackgroundColor=none;rounded=0;" vertex="1" parent="13ZfMqJyJ5SKK8B_ByMd-65">
          <mxGeometry y="180" width="180" height="30" as="geometry" />
        </mxCell>
        <mxCell id="13ZfMqJyJ5SKK8B_ByMd-74" value="Team" style="swimlane;fontStyle=0;childLayout=stackLayout;horizontal=1;startSize=30;horizontalStack=0;resizeParent=1;resizeParentMax=0;resizeLast=0;collapsible=1;marginBottom=0;whiteSpace=wrap;html=1;labelBackgroundColor=none;rounded=0;" vertex="1" parent="1">
          <mxGeometry x="440" y="780" width="140" height="120" as="geometry" />
        </mxCell>
        <mxCell id="13ZfMqJyJ5SKK8B_ByMd-75" value="name: String" style="text;strokeColor=none;fillColor=none;align=left;verticalAlign=middle;spacingLeft=4;spacingRight=4;overflow=hidden;points=[[0,0.5],[1,0.5]];portConstraint=eastwest;rotatable=0;whiteSpace=wrap;html=1;labelBackgroundColor=none;rounded=0;" vertex="1" parent="13ZfMqJyJ5SKK8B_ByMd-74">
          <mxGeometry y="30" width="140" height="30" as="geometry" />
        </mxCell>
        <mxCell id="13ZfMqJyJ5SKK8B_ByMd-76" value="slogan: String" style="text;strokeColor=none;fillColor=none;align=left;verticalAlign=middle;spacingLeft=4;spacingRight=4;overflow=hidden;points=[[0,0.5],[1,0.5]];portConstraint=eastwest;rotatable=0;whiteSpace=wrap;html=1;labelBackgroundColor=none;rounded=0;" vertex="1" parent="13ZfMqJyJ5SKK8B_ByMd-74">
          <mxGeometry y="60" width="140" height="30" as="geometry" />
        </mxCell>
        <mxCell id="13ZfMqJyJ5SKK8B_ByMd-77" value="team_lead: Worker" style="text;strokeColor=none;fillColor=none;align=left;verticalAlign=middle;spacingLeft=4;spacingRight=4;overflow=hidden;points=[[0,0.5],[1,0.5]];portConstraint=eastwest;rotatable=0;whiteSpace=wrap;html=1;labelBackgroundColor=none;rounded=0;" vertex="1" parent="13ZfMqJyJ5SKK8B_ByMd-74">
          <mxGeometry y="90" width="140" height="30" as="geometry" />
        </mxCell>
        <mxCell id="13ZfMqJyJ5SKK8B_ByMd-81" value="" style="endArrow=none;html=1;rounded=0;labelBackgroundColor=none;fontColor=default;" edge="1" parent="1">
          <mxGeometry width="50" height="50" relative="1" as="geometry">
            <mxPoint x="1060" y="850" as="sourcePoint" />
            <mxPoint x="1060" y="740" as="targetPoint" />
          </mxGeometry>
        </mxCell>
        <mxCell id="13ZfMqJyJ5SKK8B_ByMd-82" value="" style="endArrow=none;html=1;rounded=0;labelBackgroundColor=none;fontColor=default;" edge="1" parent="1">
          <mxGeometry width="50" height="50" relative="1" as="geometry">
            <mxPoint x="970" y="850" as="sourcePoint" />
            <mxPoint x="1060" y="850" as="targetPoint" />
          </mxGeometry>
        </mxCell>
        <mxCell id="13ZfMqJyJ5SKK8B_ByMd-84" value="" style="shape=rhombus;perimeter=rhombusPerimeter;whiteSpace=wrap;html=1;align=center;labelBackgroundColor=none;rounded=0;" vertex="1" parent="1">
          <mxGeometry x="940" y="840" width="30" height="20" as="geometry" />
        </mxCell>
        <mxCell id="13ZfMqJyJ5SKK8B_ByMd-85" value="0..n" style="text;html=1;align=center;verticalAlign=middle;whiteSpace=wrap;rounded=0;labelBackgroundColor=none;" vertex="1" parent="1">
          <mxGeometry x="1050" y="710" width="60" height="30" as="geometry" />
        </mxCell>
        <mxCell id="13ZfMqJyJ5SKK8B_ByMd-86" value="0..n" style="text;html=1;align=center;verticalAlign=middle;whiteSpace=wrap;rounded=0;labelBackgroundColor=none;" vertex="1" parent="1">
          <mxGeometry x="925" y="810" width="60" height="30" as="geometry" />
        </mxCell>
        <mxCell id="13ZfMqJyJ5SKK8B_ByMd-90" value="" style="endArrow=classic;html=1;rounded=0;labelBackgroundColor=none;fontColor=default;" edge="1" parent="1">
          <mxGeometry width="50" height="50" relative="1" as="geometry">
            <mxPoint x="680" y="980" as="sourcePoint" />
            <mxPoint x="757" y="980" as="targetPoint" />
          </mxGeometry>
        </mxCell>
        <mxCell id="13ZfMqJyJ5SKK8B_ByMd-91" value="" style="endArrow=none;html=1;rounded=0;labelBackgroundColor=none;fontColor=default;" edge="1" parent="1">
          <mxGeometry width="50" height="50" relative="1" as="geometry">
            <mxPoint x="680" y="980" as="sourcePoint" />
            <mxPoint x="680" y="680" as="targetPoint" />
          </mxGeometry>
        </mxCell>
        <mxCell id="13ZfMqJyJ5SKK8B_ByMd-92" value="" style="endArrow=none;html=1;rounded=0;labelBackgroundColor=none;fontColor=default;" edge="1" parent="1">
          <mxGeometry width="50" height="50" relative="1" as="geometry">
            <mxPoint x="430" y="680" as="sourcePoint" />
            <mxPoint x="680" y="680" as="targetPoint" />
          </mxGeometry>
        </mxCell>
        <mxCell id="13ZfMqJyJ5SKK8B_ByMd-93" value="" style="endArrow=none;html=1;rounded=0;labelBackgroundColor=none;fontColor=default;" edge="1" parent="1">
          <mxGeometry width="50" height="50" relative="1" as="geometry">
            <mxPoint x="430" y="680" as="sourcePoint" />
            <mxPoint x="430" y="470" as="targetPoint" />
          </mxGeometry>
        </mxCell>
        <mxCell id="13ZfMqJyJ5SKK8B_ByMd-94" value="" style="endArrow=none;html=1;rounded=0;labelBackgroundColor=none;fontColor=default;" edge="1" parent="1">
          <mxGeometry width="50" height="50" relative="1" as="geometry">
            <mxPoint x="430" y="470" as="sourcePoint" />
            <mxPoint x="870" y="470" as="targetPoint" />
          </mxGeometry>
        </mxCell>
        <mxCell id="13ZfMqJyJ5SKK8B_ByMd-95" value="" style="endArrow=classic;html=1;rounded=0;entryX=0.443;entryY=-0.012;entryDx=0;entryDy=0;entryPerimeter=0;labelBackgroundColor=none;fontColor=default;" edge="1" parent="1" target="13ZfMqJyJ5SKK8B_ByMd-25">
          <mxGeometry width="50" height="50" relative="1" as="geometry">
            <mxPoint x="870" y="470" as="sourcePoint" />
            <mxPoint x="920" y="420" as="targetPoint" />
          </mxGeometry>
        </mxCell>
        <mxCell id="13ZfMqJyJ5SKK8B_ByMd-96" value="0..n" style="text;html=1;align=center;verticalAlign=middle;whiteSpace=wrap;rounded=0;labelBackgroundColor=none;" vertex="1" parent="1">
          <mxGeometry x="860" y="500" width="60" height="30" as="geometry" />
        </mxCell>
        <mxCell id="13ZfMqJyJ5SKK8B_ByMd-97" value="0..n" style="text;html=1;align=center;verticalAlign=middle;whiteSpace=wrap;rounded=0;labelBackgroundColor=none;" vertex="1" parent="1">
          <mxGeometry x="697" y="940" width="60" height="30" as="geometry" />
        </mxCell>
        <mxCell id="13ZfMqJyJ5SKK8B_ByMd-99" value="" style="endArrow=classic;html=1;rounded=0;labelBackgroundColor=none;fontColor=default;" edge="1" parent="1">
          <mxGeometry width="50" height="50" relative="1" as="geometry">
            <mxPoint x="580" y="1280" as="sourcePoint" />
            <mxPoint x="717" y="1280" as="targetPoint" />
          </mxGeometry>
        </mxCell>
        <mxCell id="13ZfMqJyJ5SKK8B_ByMd-100" value="" style="endArrow=none;html=1;rounded=0;labelBackgroundColor=none;fontColor=default;" edge="1" parent="1">
          <mxGeometry width="50" height="50" relative="1" as="geometry">
            <mxPoint x="620" y="1010" as="sourcePoint" />
            <mxPoint x="620" y="800" as="targetPoint" />
          </mxGeometry>
        </mxCell>
        <mxCell id="13ZfMqJyJ5SKK8B_ByMd-101" value="" style="endArrow=classic;html=1;rounded=0;entryX=1.029;entryY=0.158;entryDx=0;entryDy=0;entryPerimeter=0;labelBackgroundColor=none;fontColor=default;" edge="1" parent="1" target="13ZfMqJyJ5SKK8B_ByMd-74">
          <mxGeometry width="50" height="50" relative="1" as="geometry">
            <mxPoint x="620" y="800" as="sourcePoint" />
            <mxPoint x="670" y="750" as="targetPoint" />
          </mxGeometry>
        </mxCell>
        <mxCell id="13ZfMqJyJ5SKK8B_ByMd-102" value="0..n" style="text;html=1;align=center;verticalAlign=middle;whiteSpace=wrap;rounded=0;labelBackgroundColor=none;" vertex="1" parent="1">
          <mxGeometry x="690" y="1020" width="60" height="30" as="geometry" />
        </mxCell>
        <mxCell id="13ZfMqJyJ5SKK8B_ByMd-103" value="1" style="text;html=1;align=center;verticalAlign=middle;whiteSpace=wrap;rounded=0;labelBackgroundColor=none;" vertex="1" parent="1">
          <mxGeometry x="580" y="770" width="60" height="30" as="geometry" />
        </mxCell>
        <mxCell id="13ZfMqJyJ5SKK8B_ByMd-106" value="" style="endArrow=classic;html=1;rounded=0;labelBackgroundColor=none;fontColor=default;" edge="1" parent="1">
          <mxGeometry width="50" height="50" relative="1" as="geometry">
            <mxPoint x="620" y="1010" as="sourcePoint" />
            <mxPoint x="750" y="1010" as="targetPoint" />
          </mxGeometry>
        </mxCell>
        <mxCell id="13ZfMqJyJ5SKK8B_ByMd-107" value="" style="endArrow=classic;html=1;rounded=0;labelBackgroundColor=none;fontColor=default;" edge="1" parent="1">
          <mxGeometry width="50" height="50" relative="1" as="geometry">
            <mxPoint x="330" y="890" as="sourcePoint" />
            <mxPoint x="440" y="890" as="targetPoint" />
          </mxGeometry>
        </mxCell>
        <mxCell id="13ZfMqJyJ5SKK8B_ByMd-108" value="" style="endArrow=none;html=1;rounded=0;labelBackgroundColor=none;fontColor=default;" edge="1" parent="1">
          <mxGeometry width="50" height="50" relative="1" as="geometry">
            <mxPoint x="330" y="890" as="sourcePoint" />
            <mxPoint x="330" y="380" as="targetPoint" />
          </mxGeometry>
        </mxCell>
        <mxCell id="13ZfMqJyJ5SKK8B_ByMd-109" value="" style="endArrow=none;html=1;rounded=0;labelBackgroundColor=none;fontColor=default;" edge="1" parent="1">
          <mxGeometry width="50" height="50" relative="1" as="geometry">
            <mxPoint x="330" y="380" as="sourcePoint" />
            <mxPoint x="920" y="380" as="targetPoint" />
          </mxGeometry>
        </mxCell>
        <mxCell id="13ZfMqJyJ5SKK8B_ByMd-110" value="" style="endArrow=classic;html=1;rounded=0;labelBackgroundColor=none;fontColor=default;" edge="1" parent="1">
          <mxGeometry width="50" height="50" relative="1" as="geometry">
            <mxPoint x="920" y="380" as="sourcePoint" />
            <mxPoint x="920" y="539" as="targetPoint" />
          </mxGeometry>
        </mxCell>
        <mxCell id="13ZfMqJyJ5SKK8B_ByMd-111" value="1" style="text;html=1;align=center;verticalAlign=middle;whiteSpace=wrap;rounded=0;labelBackgroundColor=none;" vertex="1" parent="1">
          <mxGeometry x="910" y="500" width="60" height="30" as="geometry" />
        </mxCell>
        <mxCell id="13ZfMqJyJ5SKK8B_ByMd-112" value="1" style="text;html=1;align=center;verticalAlign=middle;whiteSpace=wrap;rounded=0;labelBackgroundColor=none;" vertex="1" parent="1">
          <mxGeometry x="380" y="890" width="60" height="30" as="geometry" />
        </mxCell>
      </root>
    </mxGraphModel>
  </diagram>
</mxfile>
